<svg xmlns="http://www.w3.org/2000/svg" xmlns:v="https://svgstorm.com"
viewBox = "0 0 719 658"
width="719"
height="658">
<g fill="#000000" fill-opacity="0.00" stroke="None">
<path d="
M 0.00 658.00 
L 719.00 658.00
L 719.00 0.00
L 0.00 0.00
L 0.00 658.00
M 423.00 15.00 
C 437.65 19.27 438.08 34.96 444.92 46.08 C 451.77 57.19 452.78 71.71 464.23 79.77 C 475.68 87.83 489.31 88.92 502.08 95.92 C 514.84 102.93 529.37 92.52 542.22 89.22 C 555.08 85.92 569.09 74.63 582.00 81.00
C 591.05 85.46 599.82 97.59 608.25 105.75 C 616.68 113.92 627.89 123.59 635.00 133.00
C 635.71 133.94 636.52 134.95 637.00 136.00
C 641.05 144.79 631.80 156.83 629.68 165.68 C 627.56 174.53 621.24 185.23 619.00 194.00
C 618.04 197.75 617.36 202.98 618.00 207.00
C 621.99 220.69 630.22 232.22 633.92 246.08 C 637.63 259.93 653.66 261.88 664.23 268.77 C 674.80 275.66 694.19 276.43 700.00 289.00
C 703.03 295.55 701.00 306.71 701.00 314.00
C 701.00 326.00 701.00 338.00 701.00 350.00
C 701.00 355.44 701.17 361.29 700.00 366.00
C 696.64 379.56 679.59 380.61 669.31 387.31 C 659.02 394.00 642.61 394.72 635.75 406.75 C 628.88 418.77 627.09 430.50 620.22 443.22 C 613.36 455.94 623.44 473.25 626.93 485.07 C 630.41 496.90 642.65 512.51 635.00 524.00
C 628.43 533.87 617.16 542.34 608.75 550.75 C 600.35 559.16 591.81 570.47 582.00 577.00
C 572.18 583.53 561.60 575.50 551.78 572.22 C 541.96 568.94 530.32 565.07 521.00 561.00
C 516.14 559.66 510.84 559.80 506.00 561.00
C 495.97 563.49 486.99 569.33 476.98 571.98 C 466.96 574.62 458.90 581.95 454.70 590.70 C 450.49 599.44 446.65 610.56 442.02 618.02 C 437.40 625.49 435.78 640.97 427.00 644.00
C 426.55 644.15 425.50 644.00 425.00 644.00
C 415.05 648.23 400.34 644.18 389.00 645.00 C 377.66 645.82 363.06 645.91 352.00 644.00
C 346.31 643.02 343.65 641.08 341.00 636.00
C 336.85 628.05 339.70 617.31 339.00 608.00 C 338.30 598.69 339.17 587.58 340.00 579.00
C 340.00 570.00 340.00 561.00 340.00 552.00
C 339.46 546.44 338.75 538.11 339.00 532.00 C 339.25 525.89 339.21 516.49 339.00 511.00 C 338.79 505.51 339.41 493.43 340.00 495.00
C 340.06 495.16 341.00 495.00 341.00 495.00
C 340.79 481.23 361.68 492.55 371.00 492.00 C 380.32 491.45 400.56 493.09 410.67 490.67 C 420.78 488.25 434.63 486.75 444.07 482.07 C 453.52 477.40 462.94 474.19 471.70 468.70 C 480.45 463.20 487.66 457.19 495.75 450.75 C 503.83 444.30 508.55 437.00 515.25 429.25 C 521.96 421.50 526.61 413.08 531.77 403.77 C 536.93 394.46 540.19 385.09 543.33 374.33 C 546.46 363.56 549.00 350.05 549.00 338.00
C 549.00 332.67 549.00 327.33 549.00 322.00
C 549.00 284.81 534.26 253.44 512.00 224.00
C 506.27 218.27 500.12 211.13 494.00 206.00
C 478.24 195.77 468.55 186.85 450.78 179.22 C 433.00 171.59 412.49 167.00 392.00 167.00
C 388.00 167.00 384.00 167.00 380.00 167.00
C 372.40 167.00 365.45 168.00 358.00 168.00
C 353.87 168.40 349.16 171.04 345.00 169.00
C 341.98 167.52 340.43 164.02 340.00 161.00
C 338.04 147.31 340.00 131.85 340.00 118.00
C 338.94 107.00 338.94 93.93 340.00 83.00
C 340.00 77.33 340.00 71.67 340.00 66.00
C 339.07 56.38 339.00 45.33 339.00 35.00
C 339.00 30.28 338.53 24.97 340.00 21.00
C 341.33 17.40 343.71 16.08 347.00 15.00
C 357.65 11.50 373.28 14.15 385.00 14.00 C 396.72 13.85 412.31 11.89 423.00 15.00
M 175.00 160.00 
C 170.89 164.11 167.08 167.92 163.00 172.00
C 125.55 209.45 102.00 267.48 102.00 320.00
C 102.00 325.00 102.00 330.00 102.00 335.00
C 102.00 387.49 125.57 445.57 163.00 483.00
C 167.11 487.11 170.92 490.92 175.00 495.00
C 215.43 535.43 272.97 554.44 329.00 556.00
C 329.00 584.00 329.00 612.00 329.00 640.00
C 219.24 640.44 122.78 584.07 63.23 490.77 C 3.68 397.47 3.54 258.38 62.92 164.92 C 122.30 71.46 218.94 14.35 329.00 15.00
C 329.00 43.00 329.00 71.00 329.00 99.00
C 271.54 99.06 217.28 121.48 175.00 160.00
M 427.00 204.00 
C 441.01 207.26 452.30 217.88 452.00 233.00 C 451.70 248.12 442.16 260.07 428.00 263.00
C 416.63 265.35 404.15 261.57 398.00 251.00
C 396.76 248.87 395.41 247.01 394.00 245.00
C 386.41 236.79 372.43 240.39 362.00 240.00 C 351.57 239.61 338.15 238.03 330.00 245.00
C 319.92 253.62 319.19 270.38 303.00 271.00
C 297.02 271.23 290.98 271.00 285.00 271.00
C 276.03 271.87 265.67 272.00 256.00 272.00
C 247.67 272.00 239.33 272.00 231.00 272.00
C 219.33 272.00 207.67 272.00 196.00 272.00
C 190.67 272.00 185.33 272.00 180.00 272.00
C 175.14 272.47 166.38 274.31 161.00 273.00 C 155.62 271.69 144.75 275.87 141.00 272.00
C 140.75 271.74 141.00 271.00 141.00 271.00
C 136.46 270.08 133.95 265.25 138.75 262.75 C 143.55 260.26 148.65 261.00 154.00 261.00
C 163.95 260.04 175.35 260.00 186.00 260.00
C 196.67 260.00 207.33 260.00 218.00 260.00
C 218.50 260.00 219.50 260.00 220.00 260.00
C 231.23 255.22 252.30 259.00 265.00 259.00
C 276.94 259.00 289.08 259.65 301.00 259.00
C 317.23 258.12 317.40 232.68 334.00 229.00
C 340.60 227.54 348.69 228.00 356.00 228.00
C 367.13 228.00 384.94 231.72 393.00 223.00
C 398.68 214.89 404.05 207.47 414.00 205.00
C 418.70 203.18 422.03 202.84 427.00 204.00
M 477.00 295.00 
C 483.58 296.59 490.10 302.37 494.00 308.00
C 495.95 310.81 498.41 315.62 499.00 319.00
C 500.36 326.72 498.91 339.49 492.00 344.00
C 491.77 344.35 492.00 345.00 492.00 345.00
C 489.86 349.38 483.36 353.64 479.00 355.00
C 472.71 358.31 463.96 356.99 458.00 355.00
C 454.09 353.70 450.50 352.50 447.00 350.00
C 441.37 345.98 440.09 337.46 435.00 334.00
C 430.24 331.46 423.46 332.00 418.00 332.00
C 413.61 332.42 408.07 333.00 403.00 333.00
C 397.00 333.00 391.00 333.00 385.00 333.00
C 376.33 333.00 367.67 333.00 359.00 333.00
C 353.00 333.00 347.00 333.00 341.00 333.00
C 336.67 333.00 332.33 333.00 328.00 333.00
C 321.33 333.00 314.67 333.00 308.00 333.00
C 302.63 333.52 296.05 334.00 290.00 334.00
C 284.00 334.00 278.00 334.00 272.00 334.00
C 265.67 334.00 259.33 334.00 253.00 334.00
C 248.67 334.00 244.33 334.00 240.00 334.00
C 231.67 334.00 223.33 334.00 215.00 334.00
C 209.00 334.00 203.00 334.00 197.00 334.00
C 189.01 334.77 179.68 335.00 171.00 335.00
C 167.00 335.00 163.00 335.00 159.00 335.00
C 152.00 335.00 145.00 335.00 138.00 335.00
C 133.04 335.00 126.83 336.03 122.00 335.00
C 121.53 334.90 120.39 334.24 120.00 334.00
C 113.87 330.27 115.45 323.83 122.00 322.00
C 127.89 321.47 134.08 322.00 140.00 322.00
C 146.33 322.00 152.67 322.00 159.00 322.00
C 165.00 322.00 171.00 322.00 177.00 322.00
C 184.00 322.00 191.00 322.00 198.00 322.00
C 203.04 321.51 209.27 321.00 215.00 321.00
C 223.33 321.00 231.67 321.00 240.00 321.00
C 248.33 321.00 256.67 321.00 265.00 321.00
C 271.33 321.00 277.67 321.00 284.00 321.00
C 292.33 321.00 300.67 321.00 309.00 321.00
C 316.66 320.26 325.64 320.00 334.00 320.00
C 338.33 320.00 342.67 320.00 347.00 320.00
C 355.00 320.00 363.00 320.00 371.00 320.00
C 375.67 320.00 380.33 320.00 385.00 320.00
C 393.33 320.00 401.67 320.00 410.00 320.00
C 417.23 320.00 429.54 320.85 434.00 318.00
C 436.63 315.59 438.55 310.29 441.00 307.00
C 444.07 302.87 449.03 297.39 454.00 296.00
C 458.43 293.67 466.87 293.32 472.00 294.00
C 473.34 294.18 475.58 294.66 477.00 295.00
M 309.00 384.00 
C 322.12 387.25 325.18 404.18 335.00 412.00
C 341.54 415.53 352.30 412.82 360.00 413.00 C 367.70 413.18 379.25 414.39 387.00 413.00
C 391.32 411.63 394.33 408.46 397.00 405.00
C 410.01 382.38 450.35 383.81 453.00 413.00
C 455.72 421.06 454.53 430.21 448.00 437.00
C 438.75 446.62 429.01 449.75 415.93 447.07 C 402.84 444.39 399.94 431.84 390.00 426.00
C 379.71 421.86 364.86 426.70 354.00 425.00 C 343.14 423.30 329.91 429.19 324.00 418.00
C 319.86 410.16 313.89 397.96 305.00 395.00
C 290.92 392.62 274.31 395.00 260.00 395.00
C 252.33 395.00 244.67 395.00 237.00 395.00
C 227.00 395.00 217.00 395.00 207.00 395.00
C 198.00 395.00 189.00 395.00 180.00 395.00
C 175.14 395.47 166.38 397.31 161.00 396.00 C 155.62 394.69 144.75 398.87 141.00 395.00
C 140.75 394.74 141.00 394.00 141.00 394.00
C 137.22 393.38 135.21 388.06 139.25 386.25 C 143.29 384.44 147.64 385.00 152.00 385.00
C 158.68 384.35 166.63 384.00 174.00 384.00
C 185.00 384.00 196.00 384.00 207.00 384.00
C 210.67 384.00 214.33 384.00 218.00 384.00
C 223.70 383.45 230.62 383.00 237.00 383.00
C 247.33 383.00 257.67 383.00 268.00 383.00
C 281.01 383.00 296.97 381.02 309.00 384.00 Z"/>
</g>
<g fill="#000000" fill-opacity="0.40" stroke="None">
<path d="
M 347.00 15.00 
C 358.80 12.76 372.95 15.13 385.00 15.00 C 397.05 14.87 411.11 13.11 423.00 15.00
C 412.31 11.89 396.72 13.85 385.00 14.00 C 373.28 14.15 357.65 11.50 347.00 15.00 Z"/>
</g>
<g fill="#0051B0" fill-opacity="0.99" stroke="None">
<path d="
M 175.00 495.00 
C 171.24 492.57 165.34 486.62 163.00 483.00
C 125.57 445.57 102.00 387.49 102.00 335.00
C 101.54 330.28 101.55 324.65 102.00 320.00
C 102.00 267.48 125.55 209.45 163.00 172.00
C 165.43 168.24 171.38 162.34 175.00 160.00
C 217.28 121.48 271.54 99.06 329.00 99.00
C 329.00 71.00 329.00 43.00 329.00 15.00
C 218.94 14.35 122.30 71.46 62.92 164.92 C 3.54 258.38 3.68 397.47 63.23 490.77 C 122.78 584.07 219.24 640.44 329.00 640.00
C 329.00 612.00 329.00 584.00 329.00 556.00
C 272.97 554.44 215.43 535.43 175.00 495.00 Z"/>
</g>
<g fill="#000000" fill-opacity="1.00" stroke="None">
<path d="
M 340.00 21.00 
C 339.56 23.13 340.00 25.82 340.00 28.00
C 344.12 71.19 337.99 117.95 340.00 161.00
C 340.43 164.02 341.98 167.52 345.00 169.00
C 348.53 169.99 354.11 168.00 358.00 168.00
C 365.45 168.00 372.40 167.00 380.00 167.00
C 378.96 166.84 375.89 165.82 375.00 165.00
C 382.67 165.00 390.33 165.00 398.00 165.00
C 396.97 167.37 392.96 164.54 392.00 167.00
C 412.49 167.00 433.00 171.59 450.78 179.22 C 468.55 186.85 478.24 195.77 494.00 206.00
C 494.98 206.64 496.11 207.33 497.00 208.00
C 501.67 211.53 506.51 216.38 510.00 221.00
C 510.71 221.94 511.32 223.10 512.00 224.00
C 534.26 253.44 549.00 284.81 549.00 322.00
C 549.49 327.04 549.48 333.03 549.00 338.00
C 549.00 350.05 546.46 363.56 543.33 374.33 C 540.19 385.09 536.93 394.46 531.77 403.77 C 526.61 413.08 521.96 421.50 515.25 429.25 C 508.55 437.00 503.83 444.30 495.75 450.75 C 487.66 457.19 480.45 463.20 471.70 468.70 C 462.94 474.19 453.52 477.40 444.07 482.07 C 434.63 486.75 420.78 488.25 410.67 490.67 C 400.56 493.09 380.32 491.45 371.00 492.00 C 361.68 492.55 340.79 481.23 341.00 495.00
C 343.06 517.78 340.23 541.11 341.00 564.00 C 341.77 586.89 341.00 610.09 341.00 633.00
C 341.00 633.96 340.86 635.06 341.00 636.00
C 343.65 641.08 346.31 643.02 352.00 644.00
C 352.81 643.91 354.60 643.08 356.00 643.00
C 361.61 642.68 368.50 643.02 374.00 643.00 C 379.50 642.98 386.93 642.74 392.00 643.00 C 397.07 643.26 405.99 642.27 410.00 643.00 C 414.01 643.73 426.09 640.86 427.00 644.00
C 435.78 640.97 437.40 625.49 442.02 618.02 C 446.65 610.56 450.49 599.44 454.70 590.70 C 458.90 581.95 466.96 574.62 476.98 571.98 C 486.99 569.33 495.97 563.49 506.00 561.00
C 511.34 558.85 515.40 558.55 521.00 561.00
C 530.32 565.07 541.96 568.94 551.78 572.22 C 561.60 575.50 572.18 583.53 582.00 577.00
C 591.38 569.67 599.74 558.75 608.25 550.25 C 616.76 541.74 627.71 533.32 635.00 524.00
C 642.65 512.51 630.41 496.90 626.93 485.07 C 623.44 473.25 613.36 455.94 620.22 443.22 C 627.09 430.50 628.88 418.77 635.75 406.75 C 642.61 394.72 659.02 394.00 669.31 387.31 C 679.59 380.61 696.64 379.56 700.00 366.00
C 700.60 361.17 700.00 355.87 700.00 351.00
C 698.63 336.87 698.64 320.06 700.00 306.00
C 700.00 301.36 701.14 292.20 700.00 289.00
C 694.19 276.43 674.80 275.66 664.23 268.77 C 653.66 261.88 637.63 259.93 633.92 246.08 C 630.22 232.22 621.99 220.69 618.00 207.00
C 616.52 201.93 617.68 196.61 619.00 194.00
C 621.24 185.23 627.56 174.53 629.68 165.68 C 631.80 156.83 641.05 144.79 637.00 136.00
C 633.29 129.13 623.83 124.64 618.75 118.25 C 613.67 111.85 606.24 105.53 600.25 99.75 C 594.25 93.98 588.34 86.16 582.00 81.00
C 569.09 74.63 555.08 85.92 542.22 89.22 C 529.37 92.52 514.84 102.93 502.08 95.92 C 489.31 88.92 475.68 87.83 464.23 79.77 C 452.78 71.71 451.77 57.19 444.92 46.08 C 438.08 34.96 437.65 19.27 423.00 15.00
C 411.11 13.11 397.05 14.87 385.00 15.00 C 372.95 15.13 358.80 12.76 347.00 15.00
C 343.71 16.08 341.33 17.40 340.00 21.00 Z"/>
</g>
<g fill="#010101" fill-opacity="0.55" stroke="None">
<path d="
M 339.00 35.00 
C 339.00 34.96 340.00 35.00 340.00 35.00
C 340.00 32.67 340.00 30.33 340.00 28.00
C 340.00 25.82 339.56 23.13 340.00 21.00
C 338.53 24.97 339.00 30.28 339.00 35.00 Z"/>
</g>
<g fill="#020202" fill-opacity="0.85" stroke="None">
<path d="
M 340.00 35.00 
C 340.00 45.33 340.00 55.67 340.00 66.00
C 340.00 71.67 340.00 77.33 340.00 83.00
C 340.00 94.67 340.00 106.33 340.00 118.00
C 340.00 131.85 338.04 147.31 340.00 161.00
C 337.99 117.95 344.12 71.19 340.00 28.00
C 340.00 30.33 340.00 32.67 340.00 35.00 Z"/>
</g>
<g fill="#020202" fill-opacity="0.31" stroke="None">
<path d="
M 340.00 66.00 
C 340.00 55.67 340.00 45.33 340.00 35.00
C 340.00 35.00 339.00 34.96 339.00 35.00
C 339.00 45.33 339.07 56.38 340.00 66.00 Z"/>
</g>
<g fill="#000000" fill-opacity="0.34" stroke="None">
<path d="
M 582.00 81.00 
C 599.00 98.74 618.44 114.95 635.00 133.00
C 627.89 123.59 616.68 113.92 608.25 105.75 C 599.82 97.59 591.05 85.46 582.00 81.00 Z"/>
</g>
<g fill="#000000" fill-opacity="0.84" stroke="None">
<path d="
M 637.00 136.00 
C 636.52 134.95 635.71 133.94 635.00 133.00
C 618.44 114.95 599.00 98.74 582.00 81.00
C 588.34 86.16 594.25 93.98 600.25 99.75 C 606.24 105.53 613.67 111.85 618.75 118.25 C 623.83 124.64 633.29 129.13 637.00 136.00 Z"/>
</g>
<g fill="#000000" fill-opacity="0.24" stroke="None">
<path d="
M 340.00 118.00 
C 340.00 106.33 340.00 94.67 340.00 83.00
C 338.94 93.93 338.94 107.00 340.00 118.00 Z"/>
</g>
<g fill="#0051B0" fill-opacity="0.47" stroke="None">
<path d="
M 163.00 172.00 
C 167.08 167.92 170.89 164.11 175.00 160.00
C 171.38 162.34 165.43 168.24 163.00 172.00 Z"/>
</g>
<g fill="#0D0D0D" fill-opacity="0.62" stroke="None">
<path d="
M 380.00 167.00 
C 384.00 167.00 388.00 167.00 392.00 167.00
C 392.96 164.54 396.97 167.37 398.00 165.00
C 390.33 165.00 382.67 165.00 375.00 165.00
C 375.89 165.82 378.96 166.84 380.00 167.00 Z"/>
</g>
<g fill="#030303" fill-opacity="0.39" stroke="None">
<path d="
M 345.00 169.00 
C 349.16 171.04 353.87 168.40 358.00 168.00
C 354.11 168.00 348.53 169.99 345.00 169.00 Z"/>
</g>
<g fill="#0B0B0B" fill-opacity="0.53" stroke="None">
<path d="
M 618.00 207.00 
C 617.36 202.98 618.04 197.75 619.00 194.00
C 617.68 196.61 616.52 201.93 618.00 207.00 Z"/>
</g>
<g fill="#000000" fill-opacity="0.42" stroke="None">
<path d="
M 414.00 205.00 
C 418.02 204.00 422.64 203.51 427.00 204.00
C 422.03 202.84 418.70 203.18 414.00 205.00 Z"/>
</g>
<g fill="#000000" fill-opacity="0.99" stroke="None">
<path d="
M 414.00 205.00 
C 404.05 207.47 398.68 214.89 393.00 223.00
C 386.11 232.84 367.60 229.00 356.00 229.00
C 348.80 229.00 341.16 228.26 334.00 229.00
C 317.40 232.68 317.23 258.12 301.00 259.00
C 296.20 259.78 290.46 260.00 285.00 260.00
C 263.62 262.07 240.14 261.00 218.00 261.00
C 207.33 261.00 196.67 261.00 186.00 261.00
C 175.33 261.00 164.67 261.00 154.00 261.00
C 148.65 261.00 143.55 260.26 138.75 262.75 C 133.95 265.25 136.46 270.08 141.00 271.00
C 159.00 269.37 177.92 271.00 196.00 271.00
C 207.67 271.00 219.33 271.00 231.00 271.00
C 239.33 271.00 247.67 271.00 256.00 271.00
C 260.33 271.00 264.67 271.00 269.00 271.00
C 279.72 269.96 292.38 270.37 303.00 271.00
C 319.19 270.38 319.92 253.62 330.00 245.00
C 335.67 237.06 349.93 238.44 361.00 239.00 C 372.07 239.56 387.28 235.40 394.00 245.00
C 395.41 247.01 396.76 248.87 398.00 251.00
C 405.72 260.21 416.06 264.09 428.00 263.00
C 442.16 260.07 451.70 248.12 452.00 233.00 C 452.30 217.88 441.01 207.26 427.00 204.00
C 422.64 203.51 418.02 204.00 414.00 205.00 Z"/>
</g>
<g fill="#000000" fill-opacity="0.35" stroke="None">
<path d="
M 512.00 224.00 
C 511.32 223.10 510.71 221.94 510.00 221.00
C 506.10 216.75 501.20 211.85 497.00 208.00
C 496.11 207.33 494.98 206.64 494.00 206.00
C 500.12 211.13 506.27 218.27 512.00 224.00 Z"/>
</g>
<g fill="#000000" fill-opacity="0.85" stroke="None">
<path d="
M 510.00 221.00 
C 506.51 216.38 501.67 211.53 497.00 208.00
C 501.20 211.85 506.10 216.75 510.00 221.00 Z"/>
</g>
<g fill="#090909" fill-opacity="0.45" stroke="None">
<path d="
M 356.00 228.00 
C 356.04 228.00 356.00 229.00 356.00 229.00
C 367.60 229.00 386.11 232.84 393.00 223.00
C 384.94 231.72 367.13 228.00 356.00 228.00 Z"/>
</g>
<g fill="#0A0A0A" fill-opacity="0.26" stroke="None">
<path d="
M 334.00 229.00 
C 341.16 228.26 348.80 229.00 356.00 229.00
C 356.00 229.00 356.04 228.00 356.00 228.00
C 348.69 228.00 340.60 227.54 334.00 229.00 Z"/>
</g>
<g fill="#090909" fill-opacity="0.49" stroke="None">
<path d="
M 330.00 245.00 
C 338.15 238.03 351.57 239.61 362.00 240.00 C 372.43 240.39 386.41 236.79 394.00 245.00
C 387.28 235.40 372.07 239.56 361.00 239.00 C 349.93 238.44 335.67 237.06 330.00 245.00 Z"/>
</g>
<g fill="#000000" fill-opacity="0.46" stroke="None">
<path d="
M 428.00 263.00 
C 416.06 264.09 405.72 260.21 398.00 251.00
C 404.15 261.57 416.63 265.35 428.00 263.00 Z"/>
</g>
<g fill="#000000" fill-opacity="0.24" stroke="None">
<path d="
M 220.00 260.00 
C 235.00 260.00 250.00 260.00 265.00 260.00
C 264.96 260.00 265.00 259.00 265.00 259.00
C 252.30 259.00 231.23 255.22 220.00 260.00 Z"/>
</g>
<g fill="#000000" fill-opacity="0.45" stroke="None">
<path d="
M 265.00 260.00 
C 271.67 260.00 278.33 260.00 285.00 260.00
C 290.46 260.00 296.20 259.78 301.00 259.00
C 289.08 259.65 276.94 259.00 265.00 259.00
C 265.00 259.00 264.96 260.00 265.00 260.00 Z"/>
</g>
<g fill="#000000" fill-opacity="0.44" stroke="None">
<path d="
M 154.00 261.00 
C 164.67 261.00 175.33 261.00 186.00 261.00
C 185.96 261.00 186.00 260.00 186.00 260.00
C 175.35 260.00 163.95 260.04 154.00 261.00 Z"/>
</g>
<g fill="#000000" fill-opacity="0.63" stroke="None">
<path d="
M 186.00 261.00 
C 196.67 261.00 207.33 261.00 218.00 261.00
C 217.96 261.00 218.00 260.00 218.00 260.00
C 207.33 260.00 196.67 260.00 186.00 260.00
C 186.00 260.00 185.96 261.00 186.00 261.00 Z"/>
</g>
<g fill="#000000" fill-opacity="0.85" stroke="None">
<path d="
M 218.00 261.00 
C 240.14 261.00 263.62 262.07 285.00 260.00
C 278.33 260.00 271.67 260.00 265.00 260.00
C 250.00 260.00 235.00 260.00 220.00 260.00
C 219.50 260.00 218.50 260.00 218.00 260.00
C 218.00 260.00 217.96 261.00 218.00 261.00 Z"/>
</g>
<g fill="#070707" fill-opacity="0.79" stroke="None">
<path d="
M 269.00 271.00 
C 274.33 271.00 279.67 271.00 285.00 271.00
C 290.98 271.00 297.02 271.23 303.00 271.00
C 292.38 270.37 279.72 269.96 269.00 271.00 Z"/>
</g>
<g fill="#080808" fill-opacity="0.80" stroke="None">
<path d="
M 141.00 272.00 
C 153.76 273.15 167.18 272.00 180.00 272.00
C 185.33 272.00 190.67 272.00 196.00 272.00
C 195.96 272.00 196.00 271.00 196.00 271.00
C 177.92 271.00 159.00 269.37 141.00 271.00
C 141.00 271.00 140.75 271.74 141.00 272.00 Z"/>
</g>
<g fill="#060606" fill-opacity="0.56" stroke="None">
<path d="
M 196.00 272.00 
C 207.67 272.00 219.33 272.00 231.00 272.00
C 230.96 272.00 231.00 271.00 231.00 271.00
C 219.33 271.00 207.67 271.00 196.00 271.00
C 196.00 271.00 195.96 272.00 196.00 272.00 Z"/>
</g>
<g fill="#050505" fill-opacity="0.36" stroke="None">
<path d="
M 231.00 272.00 
C 239.33 272.00 247.67 272.00 256.00 272.00
C 255.96 272.00 256.00 271.00 256.00 271.00
C 247.67 271.00 239.33 271.00 231.00 271.00
C 231.00 271.00 230.96 272.00 231.00 272.00 Z"/>
</g>
<g fill="#050505" fill-opacity="0.20" stroke="None">
<path d="
M 256.00 272.00 
C 265.67 272.00 276.03 271.87 285.00 271.00
C 279.67 271.00 274.33 271.00 269.00 271.00
C 264.67 271.00 260.33 271.00 256.00 271.00
C 256.00 271.00 255.96 272.00 256.00 272.00 Z"/>
</g>
<g fill="#040404" fill-opacity="0.19" stroke="None">
<path d="
M 180.00 272.00 
C 167.18 272.00 153.76 273.15 141.00 272.00
C 144.75 275.87 155.62 271.69 161.00 273.00 C 166.38 274.31 175.14 272.47 180.00 272.00 Z"/>
</g>
<g fill="#020202" fill-opacity="0.50" stroke="None">
<path d="
M 700.00 306.00 
C 700.00 308.67 700.00 311.33 700.00 314.00
C 700.00 313.96 701.00 314.00 701.00 314.00
C 701.00 306.71 703.03 295.55 700.00 289.00
C 701.14 292.20 700.00 301.36 700.00 306.00 Z"/>
</g>
<g fill="#0051B1" fill-opacity="0.38" stroke="None">
<path d="
M 454.00 296.00 
C 453.79 296.11 454.00 297.00 454.00 297.00
C 459.10 295.61 467.14 293.82 472.00 294.00
C 466.87 293.32 458.43 293.67 454.00 296.00 Z"/>
</g>
<g fill="#0052B0" fill-opacity="0.99" stroke="None">
<path d="
M 454.00 297.00 
C 452.26 297.93 450.58 298.83 449.00 300.00
C 442.91 305.31 440.30 313.98 434.00 318.00
C 429.54 320.85 417.23 320.00 410.00 320.00
C 402.34 320.74 393.36 321.00 385.00 321.00
C 380.33 321.00 375.67 321.00 371.00 321.00
C 363.00 321.00 355.00 321.00 347.00 321.00
C 342.67 321.00 338.33 321.00 334.00 321.00
C 325.67 321.00 317.33 321.00 309.00 321.00
C 300.67 321.00 292.33 321.00 284.00 321.00
C 278.30 321.55 271.38 322.00 265.00 322.00
C 256.67 322.00 248.33 322.00 240.00 322.00
C 231.67 322.00 223.33 322.00 215.00 322.00
C 209.33 322.00 203.67 322.00 198.00 322.00
C 191.00 322.00 184.00 322.00 177.00 322.00
C 171.63 322.52 165.05 323.00 159.00 323.00
C 152.67 323.00 146.33 323.00 140.00 323.00
C 134.08 323.00 127.89 323.53 122.00 323.00
C 117.14 325.59 114.95 329.79 120.00 334.00
C 120.39 334.24 121.53 334.90 122.00 335.00
C 126.45 334.97 132.80 334.00 138.00 334.00
C 145.03 334.00 152.72 334.39 159.00 335.00
C 163.00 335.00 167.00 335.00 171.00 335.00
C 178.99 334.23 188.32 334.00 197.00 334.00
C 203.00 334.00 209.00 334.00 215.00 334.00
C 222.66 333.26 231.64 333.00 240.00 333.00
C 244.33 333.00 248.67 333.00 253.00 333.00
C 259.33 333.00 265.67 333.00 272.00 333.00
C 278.00 333.00 284.00 333.00 290.00 333.00
C 296.00 333.00 302.00 333.00 308.00 333.00
C 314.67 333.00 321.33 333.00 328.00 333.00
C 331.73 332.64 336.59 332.00 341.00 332.00
C 347.00 332.00 353.00 332.00 359.00 332.00
C 367.67 332.00 376.33 332.00 385.00 332.00
C 391.00 332.00 397.00 332.00 403.00 332.00
C 408.00 332.00 413.00 332.00 418.00 332.00
C 423.46 332.00 430.24 331.46 435.00 334.00
C 438.78 336.02 440.52 341.67 443.00 345.00
C 446.62 349.15 453.18 353.52 458.00 355.00
C 464.74 357.07 472.45 355.79 479.00 354.00
C 483.73 351.28 487.52 348.13 492.00 345.00
C 492.00 345.00 491.77 344.35 492.00 344.00
C 496.41 337.39 499.61 326.63 499.00 319.00
C 498.41 315.62 495.95 310.81 494.00 308.00
C 490.24 304.20 481.15 296.63 477.00 295.00
C 475.58 294.66 473.34 294.18 472.00 294.00
C 467.14 293.82 459.10 295.61 454.00 297.00 Z"/>
</g>
<g fill="#0052B0" fill-opacity="0.51" stroke="None">
<path d="
M 494.00 308.00 
C 490.10 302.37 483.58 296.59 477.00 295.00
C 481.15 296.63 490.24 304.20 494.00 308.00 Z"/>
</g>
<g fill="#0053B0" fill-opacity="0.15" stroke="None">
<path d="
M 441.00 307.00 
C 443.11 304.58 446.45 301.89 449.00 300.00
C 450.58 298.83 452.26 297.93 454.00 297.00
C 454.00 297.00 453.79 296.11 454.00 296.00
C 449.03 297.39 444.07 302.87 441.00 307.00 Z"/>
</g>
<g fill="#0052B1" fill-opacity="0.47" stroke="None">
<path d="
M 441.00 307.00 
C 438.55 310.29 436.63 315.59 434.00 318.00
C 440.30 313.98 442.91 305.31 449.00 300.00
C 446.45 301.89 443.11 304.58 441.00 307.00 Z"/>
</g>
<g fill="#040404" fill-opacity="0.84" stroke="None">
<path d="
M 700.00 351.00 
C 700.00 350.50 700.00 350.00 700.00 350.00
C 700.00 338.00 700.00 326.00 700.00 314.00
C 700.00 311.33 700.00 308.67 700.00 306.00
C 698.64 320.06 698.63 336.87 700.00 351.00 Z"/>
</g>
<g fill="#030303" fill-opacity="0.20" stroke="None">
<path d="
M 700.00 350.00 
C 700.25 349.75 701.00 350.00 701.00 350.00
C 701.00 338.00 701.00 326.00 701.00 314.00
C 701.00 314.00 700.00 313.96 700.00 314.00
C 700.00 326.00 700.00 338.00 700.00 350.00 Z"/>
</g>
<g fill="#0051B1" fill-opacity="0.61" stroke="None">
<path d="
M 492.00 344.00 
C 498.91 339.49 500.36 326.72 499.00 319.00
C 499.61 326.63 496.41 337.39 492.00 344.00 Z"/>
</g>
<g fill="#0052B0" fill-opacity="0.52" stroke="None">
<path d="
M 102.00 335.00 
C 102.00 330.00 102.00 325.00 102.00 320.00
C 101.55 324.65 101.54 330.28 102.00 335.00 Z"/>
</g>
<g fill="#0054AF" fill-opacity="0.10" stroke="None">
<path d="
M 309.00 321.00 
C 317.33 321.00 325.67 321.00 334.00 321.00
C 333.96 321.00 334.00 320.00 334.00 320.00
C 325.64 320.00 316.66 320.26 309.00 321.00 Z"/>
</g>
<g fill="#0052B0" fill-opacity="0.27" stroke="None">
<path d="
M 334.00 321.00 
C 338.33 321.00 342.67 321.00 347.00 321.00
C 346.96 321.00 347.00 320.00 347.00 320.00
C 342.67 320.00 338.33 320.00 334.00 320.00
C 334.00 320.00 333.96 321.00 334.00 321.00 Z"/>
</g>
<g fill="#0051B0" fill-opacity="0.45" stroke="None">
<path d="
M 347.00 321.00 
C 355.00 321.00 363.00 321.00 371.00 321.00
C 370.96 321.00 371.00 320.00 371.00 320.00
C 363.00 320.00 355.00 320.00 347.00 320.00
C 347.00 320.00 346.96 321.00 347.00 321.00 Z"/>
</g>
<g fill="#0052B1" fill-opacity="0.65" stroke="None">
<path d="
M 371.00 321.00 
C 375.67 321.00 380.33 321.00 385.00 321.00
C 384.96 321.00 385.00 320.00 385.00 320.00
C 380.33 320.00 375.67 320.00 371.00 320.00
C 371.00 320.00 370.96 321.00 371.00 321.00 Z"/>
</g>
<g fill="#0051B1" fill-opacity="0.83" stroke="None">
<path d="
M 385.00 321.00 
C 393.36 321.00 402.34 320.74 410.00 320.00
C 401.67 320.00 393.33 320.00 385.00 320.00
C 385.00 320.00 384.96 321.00 385.00 321.00 Z"/>
</g>
<g fill="#0057AB" fill-opacity="0.07" stroke="None">
<path d="
M 198.00 322.00 
C 203.67 322.00 209.33 322.00 215.00 322.00
C 214.96 322.00 215.00 321.00 215.00 321.00
C 209.27 321.00 203.04 321.51 198.00 322.00 Z"/>
</g>
<g fill="#0052B1" fill-opacity="0.25" stroke="None">
<path d="
M 215.00 322.00 
C 223.33 322.00 231.67 322.00 240.00 322.00
C 239.96 322.00 240.00 321.00 240.00 321.00
C 231.67 321.00 223.33 321.00 215.00 321.00
C 215.00 321.00 214.96 322.00 215.00 322.00 Z"/>
</g>
<g fill="#0052B1" fill-opacity="0.49" stroke="None">
<path d="
M 240.00 322.00 
C 248.33 322.00 256.67 322.00 265.00 322.00
C 264.96 322.00 265.00 321.00 265.00 321.00
C 256.67 321.00 248.33 321.00 240.00 321.00
C 240.00 321.00 239.96 322.00 240.00 322.00 Z"/>
</g>
<g fill="#0051B1" fill-opacity="0.71" stroke="None">
<path d="
M 265.00 322.00 
C 271.38 322.00 278.30 321.55 284.00 321.00
C 277.67 321.00 271.33 321.00 265.00 321.00
C 265.00 321.00 264.96 322.00 265.00 322.00 Z"/>
</g>
<g fill="#0052B0" fill-opacity="0.21" stroke="None">
<path d="
M 120.00 334.00 
C 114.95 329.79 117.14 325.59 122.00 323.00
C 122.21 322.89 122.00 322.00 122.00 322.00
C 115.45 323.83 113.87 330.27 120.00 334.00 Z"/>
</g>
<g fill="#0051B1" fill-opacity="0.38" stroke="None">
<path d="
M 122.00 323.00 
C 127.89 323.53 134.08 323.00 140.00 323.00
C 139.96 323.00 140.00 322.00 140.00 322.00
C 134.08 322.00 127.89 321.47 122.00 322.00
C 122.00 322.00 122.21 322.89 122.00 323.00 Z"/>
</g>
<g fill="#0052B1" fill-opacity="0.57" stroke="None">
<path d="
M 140.00 323.00 
C 146.33 323.00 152.67 323.00 159.00 323.00
C 158.96 323.00 159.00 322.00 159.00 322.00
C 152.67 322.00 146.33 322.00 140.00 322.00
C 140.00 322.00 139.96 323.00 140.00 323.00 Z"/>
</g>
<g fill="#0052B1" fill-opacity="0.75" stroke="None">
<path d="
M 159.00 323.00 
C 165.05 323.00 171.63 322.52 177.00 322.00
C 171.00 322.00 165.00 322.00 159.00 322.00
C 159.00 322.00 158.96 323.00 159.00 323.00 Z"/>
</g>
<g fill="#101010" fill-opacity="0.48" stroke="None">
<path d="
M 549.00 338.00 
C 549.48 333.03 549.49 327.04 549.00 322.00
C 549.00 327.33 549.00 332.67 549.00 338.00 Z"/>
</g>
<g fill="#0051B1" fill-opacity="0.78" stroke="None">
<path d="
M 328.00 333.00 
C 332.33 333.00 336.67 333.00 341.00 333.00
C 340.96 333.00 341.00 332.00 341.00 332.00
C 336.59 332.00 331.73 332.64 328.00 333.00 Z"/>
</g>
<g fill="#0052B1" fill-opacity="0.64" stroke="None">
<path d="
M 341.00 333.00 
C 347.00 333.00 353.00 333.00 359.00 333.00
C 358.96 333.00 359.00 332.00 359.00 332.00
C 353.00 332.00 347.00 332.00 341.00 332.00
C 341.00 332.00 340.96 333.00 341.00 333.00 Z"/>
</g>
<g fill="#0051B1" fill-opacity="0.41" stroke="None">
<path d="
M 359.00 333.00 
C 367.67 333.00 376.33 333.00 385.00 333.00
C 384.96 333.00 385.00 332.00 385.00 332.00
C 376.33 332.00 367.67 332.00 359.00 332.00
C 359.00 332.00 358.96 333.00 359.00 333.00 Z"/>
</g>
<g fill="#0052B0" fill-opacity="0.20" stroke="None">
<path d="
M 385.00 333.00 
C 391.00 333.00 397.00 333.00 403.00 333.00
C 402.96 333.00 403.00 332.00 403.00 332.00
C 397.00 332.00 391.00 332.00 385.00 332.00
C 385.00 332.00 384.96 333.00 385.00 333.00 Z"/>
</g>
<g fill="#0058AE" fill-opacity="0.06" stroke="None">
<path d="
M 403.00 333.00 
C 408.07 333.00 413.61 332.42 418.00 332.00
C 413.00 332.00 408.00 332.00 403.00 332.00
C 403.00 332.00 402.96 333.00 403.00 333.00 Z"/>
</g>
<g fill="#0051B1" fill-opacity="0.75" stroke="None">
<path d="
M 215.00 334.00 
C 223.33 334.00 231.67 334.00 240.00 334.00
C 239.96 334.00 240.00 333.00 240.00 333.00
C 231.64 333.00 222.66 333.26 215.00 334.00 Z"/>
</g>
<g fill="#0052B0" fill-opacity="0.56" stroke="None">
<path d="
M 240.00 334.00 
C 244.33 334.00 248.67 334.00 253.00 334.00
C 252.96 334.00 253.00 333.00 253.00 333.00
C 248.67 333.00 244.33 333.00 240.00 333.00
C 240.00 333.00 239.96 334.00 240.00 334.00 Z"/>
</g>
<g fill="#0051B0" fill-opacity="0.40" stroke="None">
<path d="
M 253.00 334.00 
C 259.33 334.00 265.67 334.00 272.00 334.00
C 271.96 334.00 272.00 333.00 272.00 333.00
C 265.67 333.00 259.33 333.00 253.00 333.00
C 253.00 333.00 252.96 334.00 253.00 334.00 Z"/>
</g>
<g fill="#0052B0" fill-opacity="0.22" stroke="None">
<path d="
M 272.00 334.00 
C 278.00 334.00 284.00 334.00 290.00 334.00
C 289.96 334.00 290.00 333.00 290.00 333.00
C 284.00 333.00 278.00 333.00 272.00 333.00
C 272.00 333.00 271.96 334.00 272.00 334.00 Z"/>
</g>
<g fill="#0058AD" fill-opacity="0.07" stroke="None">
<path d="
M 290.00 334.00 
C 296.05 334.00 302.63 333.52 308.00 333.00
C 302.00 333.00 296.00 333.00 290.00 333.00
C 290.00 333.00 289.96 334.00 290.00 334.00 Z"/>
</g>
<g fill="#0052B1" fill-opacity="0.63" stroke="None">
<path d="
M 122.00 335.00 
C 126.83 336.03 133.04 335.00 138.00 335.00
C 137.96 335.00 138.00 334.00 138.00 334.00
C 132.80 334.00 126.45 334.97 122.00 335.00 Z"/>
</g>
<g fill="#0051B0" fill-opacity="0.44" stroke="None">
<path d="
M 138.00 335.00 
C 145.00 335.00 152.00 335.00 159.00 335.00
C 152.72 334.39 145.03 334.00 138.00 334.00
C 138.00 334.00 137.96 335.00 138.00 335.00 Z"/>
</g>
<g fill="#0055AE" fill-opacity="0.11" stroke="None">
<path d="
M 171.00 335.00 
C 179.68 335.00 189.01 334.77 197.00 334.00
C 188.32 334.00 178.99 334.23 171.00 335.00 Z"/>
</g>
<g fill="#004EB6" fill-opacity="0.11" stroke="None">
<path d="
M 447.00 350.00 
C 445.56 348.79 444.10 346.48 443.00 345.00
C 440.52 341.67 438.78 336.02 435.00 334.00
C 440.09 337.46 441.37 345.98 447.00 350.00 Z"/>
</g>
<g fill="#0051B1" fill-opacity="0.75" stroke="None">
<path d="
M 447.00 350.00 
C 450.50 352.50 454.09 353.70 458.00 355.00
C 453.18 353.52 446.62 349.15 443.00 345.00
C 444.10 346.48 445.56 348.79 447.00 350.00 Z"/>
</g>
<g fill="#0051B1" fill-opacity="0.34" stroke="None">
<path d="
M 479.00 354.00 
C 478.78 354.12 479.00 355.00 479.00 355.00
C 483.36 353.64 489.86 349.38 492.00 345.00
C 487.52 348.13 483.73 351.28 479.00 354.00 Z"/>
</g>
<g fill="#020202" fill-opacity="0.52" stroke="None">
<path d="
M 700.00 351.00 
C 700.00 355.87 700.60 361.17 700.00 366.00
C 701.17 361.29 701.00 355.44 701.00 350.00
C 701.00 350.00 700.25 349.75 700.00 350.00
C 700.00 350.00 700.00 350.50 700.00 351.00 Z"/>
</g>
<g fill="#0052B1" fill-opacity="0.55" stroke="None">
<path d="
M 458.00 355.00 
C 463.96 356.99 472.71 358.31 479.00 355.00
C 479.00 355.00 478.78 354.12 479.00 354.00
C 472.45 355.79 464.74 357.07 458.00 355.00 Z"/>
</g>
<g fill="#030303" fill-opacity="0.25" stroke="None">
<path d="
M 218.00 384.00 
C 224.33 384.00 230.67 384.00 237.00 384.00
C 236.96 384.00 237.00 383.00 237.00 383.00
C 230.62 383.00 223.70 383.45 218.00 384.00 Z"/>
</g>
<g fill="#030303" fill-opacity="0.42" stroke="None">
<path d="
M 237.00 384.00 
C 247.33 384.00 257.67 384.00 268.00 384.00
C 267.96 384.00 268.00 383.00 268.00 383.00
C 257.67 383.00 247.33 383.00 237.00 383.00
C 237.00 383.00 236.96 384.00 237.00 384.00 Z"/>
</g>
<g fill="#030303" fill-opacity="0.64" stroke="None">
<path d="
M 268.00 384.00 
C 281.32 384.00 295.80 382.36 309.00 384.00
C 296.97 381.02 281.01 383.00 268.00 383.00
C 268.00 383.00 267.96 384.00 268.00 384.00 Z"/>
</g>
<g fill="#030303" fill-opacity="0.55" stroke="None">
<path d="
M 152.00 385.00 
C 159.33 385.00 166.67 385.00 174.00 385.00
C 173.96 385.00 174.00 384.00 174.00 384.00
C 166.63 384.00 158.68 384.35 152.00 385.00 Z"/>
</g>
<g fill="#040404" fill-opacity="0.75" stroke="None">
<path d="
M 174.00 385.00 
C 184.97 385.00 196.80 384.99 207.00 384.00
C 196.00 384.00 185.00 384.00 174.00 384.00
C 174.00 384.00 173.96 385.00 174.00 385.00 Z"/>
</g>
<g fill="#000000" fill-opacity="0.99" stroke="None">
<path d="
M 174.00 385.00 
C 166.67 385.00 159.33 385.00 152.00 385.00
C 147.64 385.00 143.29 384.44 139.25 386.25 C 135.21 388.06 137.22 393.38 141.00 394.00
C 153.44 392.88 166.51 394.00 179.00 394.00
C 188.33 394.00 197.67 394.00 207.00 394.00
C 217.00 394.00 227.00 394.00 237.00 394.00
C 243.00 394.00 249.00 394.00 255.00 394.00
C 262.08 393.31 271.24 392.22 279.00 393.00 C 286.76 393.78 296.19 391.22 303.00 394.00
C 304.31 394.16 304.18 394.73 305.00 395.00
C 313.89 397.96 319.86 410.16 324.00 418.00
C 331.56 427.87 344.28 422.43 355.00 424.00 C 365.72 425.57 380.99 420.70 390.00 426.00
C 399.94 431.84 402.84 444.39 415.93 447.07 C 429.01 449.75 438.75 446.62 448.00 437.00
C 452.84 430.68 453.74 421.11 453.00 413.00
C 450.35 383.81 410.01 382.38 397.00 405.00
C 391.53 414.50 384.16 416.14 373.00 415.00 C 361.84 413.86 350.30 416.52 340.00 414.00
C 337.68 413.43 336.81 413.44 335.00 412.00
C 325.18 404.18 322.12 387.25 309.00 384.00
C 295.80 382.36 281.32 384.00 268.00 384.00
C 257.67 384.00 247.33 384.00 237.00 384.00
C 230.67 384.00 224.33 384.00 218.00 384.00
C 214.33 384.00 210.67 384.00 207.00 384.00
C 196.80 384.99 184.97 385.00 174.00 385.00 Z"/>
</g>
<g fill="#000000" fill-opacity="0.78" stroke="None">
<path d="
M 255.00 394.00 
C 256.67 394.00 258.33 394.00 260.00 394.00
C 273.97 394.00 289.15 392.29 303.00 394.00
C 296.19 391.22 286.76 393.78 279.00 393.00 C 271.24 392.22 262.08 393.31 255.00 394.00 Z"/>
</g>
<g fill="#000000" fill-opacity="0.80" stroke="None">
<path d="
M 141.00 395.00 
C 153.43 396.12 166.51 395.00 179.00 395.00
C 178.75 394.75 179.00 394.00 179.00 394.00
C 166.51 394.00 153.44 392.88 141.00 394.00
C 141.00 394.00 140.75 394.74 141.00 395.00 Z"/>
</g>
<g fill="#000000" fill-opacity="0.64" stroke="None">
<path d="
M 179.00 395.00 
C 179.50 395.00 180.00 395.00 180.00 395.00
C 189.00 395.00 198.00 395.00 207.00 395.00
C 206.96 395.00 207.00 394.00 207.00 394.00
C 197.67 394.00 188.33 394.00 179.00 394.00
C 179.00 394.00 178.75 394.75 179.00 395.00 Z"/>
</g>
<g fill="#000000" fill-opacity="0.47" stroke="None">
<path d="
M 207.00 395.00 
C 217.00 395.00 227.00 395.00 237.00 395.00
C 236.96 395.00 237.00 394.00 237.00 394.00
C 227.00 394.00 217.00 394.00 207.00 394.00
C 207.00 394.00 206.96 395.00 207.00 395.00 Z"/>
</g>
<g fill="#000000" fill-opacity="0.31" stroke="None">
<path d="
M 237.00 395.00 
C 244.67 395.00 252.33 395.00 260.00 395.00
C 259.96 395.00 260.00 394.00 260.00 394.00
C 258.33 394.00 256.67 394.00 255.00 394.00
C 249.00 394.00 243.00 394.00 237.00 394.00
C 237.00 394.00 236.96 395.00 237.00 395.00 Z"/>
</g>
<g fill="#000000" fill-opacity="0.16" stroke="None">
<path d="
M 260.00 395.00 
C 274.31 395.00 290.92 392.62 305.00 395.00
C 304.18 394.73 304.31 394.16 303.00 394.00
C 289.15 392.29 273.97 394.00 260.00 394.00
C 260.00 394.00 259.96 395.00 260.00 395.00 Z"/>
</g>
<g fill="#000000" fill-opacity="0.19" stroke="None">
<path d="
M 180.00 395.00 
C 180.00 395.00 179.50 395.00 179.00 395.00
C 166.51 395.00 153.43 396.12 141.00 395.00
C 144.75 398.87 155.62 394.69 161.00 396.00 C 166.38 397.31 175.14 395.47 180.00 395.00 Z"/>
</g>
<g fill="#090909" fill-opacity="0.76" stroke="None">
<path d="
M 387.00 413.00 
C 380.32 415.11 371.57 414.11 364.00 414.00 C 356.43 413.89 347.57 414.93 340.00 414.00
C 350.30 416.52 361.84 413.86 373.00 415.00 C 384.16 416.14 391.53 414.50 397.00 405.00
C 394.33 408.46 391.32 411.63 387.00 413.00 Z"/>
</g>
<g fill="#060606" fill-opacity="0.26" stroke="None">
<path d="
M 340.00 414.00 
C 347.57 414.93 356.43 413.89 364.00 414.00 C 371.57 414.11 380.32 415.11 387.00 413.00
C 379.25 414.39 367.70 413.18 360.00 413.00 C 352.30 412.82 341.54 415.53 335.00 412.00
C 336.81 413.44 337.68 413.43 340.00 414.00 Z"/>
</g>
<g fill="#000000" fill-opacity="0.51" stroke="None">
<path d="
M 448.00 437.00 
C 454.53 430.21 455.72 421.06 453.00 413.00
C 453.74 421.11 452.84 430.68 448.00 437.00 Z"/>
</g>
<g fill="#010101" fill-opacity="0.39" stroke="None">
<path d="
M 390.00 426.00 
C 380.99 420.70 365.72 425.57 355.00 424.00 C 344.28 422.43 331.56 427.87 324.00 418.00
C 329.91 429.19 343.14 423.30 354.00 425.00 C 364.86 426.70 379.71 421.86 390.00 426.00 Z"/>
</g>
<g fill="#0051B0" fill-opacity="0.47" stroke="None">
<path d="
M 175.00 495.00 
C 170.92 490.92 167.11 487.11 163.00 483.00
C 165.34 486.62 171.24 492.57 175.00 495.00 Z"/>
</g>
<g fill="#010101" fill-opacity="0.29" stroke="None">
<path d="
M 340.00 552.00 
C 340.00 533.26 338.31 513.65 340.00 495.00
C 339.41 493.43 338.79 505.51 339.00 511.00 C 339.21 516.49 339.25 525.89 339.00 532.00 C 338.75 538.11 339.46 546.44 340.00 552.00 Z"/>
</g>
<g fill="#030303" fill-opacity="0.87" stroke="None">
<path d="
M 340.00 552.00 
C 340.00 561.00 340.00 570.00 340.00 579.00
C 340.00 596.19 337.45 616.85 341.00 633.00
C 341.00 610.09 341.77 586.89 341.00 564.00 C 340.23 541.11 343.06 517.78 341.00 495.00
C 341.00 495.00 340.06 495.16 340.00 495.00
C 338.31 513.65 340.00 533.26 340.00 552.00 Z"/>
</g>
<g fill="#000000" fill-opacity="0.40" stroke="None">
<path d="
M 582.00 577.00 
C 591.81 570.47 600.35 559.16 608.75 550.75 C 617.16 542.34 628.43 533.87 635.00 524.00
C 627.71 533.32 616.76 541.74 608.25 550.25 C 599.74 558.75 591.38 569.67 582.00 577.00 Z"/>
</g>
<g fill="#070707" fill-opacity="0.51" stroke="None">
<path d="
M 506.00 561.00 
C 510.84 559.80 516.14 559.66 521.00 561.00
C 515.40 558.55 511.34 558.85 506.00 561.00 Z"/>
</g>
<g fill="#000000" fill-opacity="0.25" stroke="None">
<path d="
M 341.00 636.00 
C 340.86 635.06 341.00 633.96 341.00 633.00
C 337.45 616.85 340.00 596.19 340.00 579.00
C 339.17 587.58 338.30 598.69 339.00 608.00 C 339.70 617.31 336.85 628.05 341.00 636.00 Z"/>
</g>
<g fill="#060606" fill-opacity="0.33" stroke="None">
<path d="
M 352.00 644.00 
C 363.06 645.91 377.66 645.82 389.00 645.00 C 400.34 644.18 415.05 648.23 425.00 644.00
C 402.10 644.00 378.10 644.08 356.00 643.00
C 354.60 643.08 352.81 643.91 352.00 644.00 Z"/>
</g>
<g fill="#0F0F0F" fill-opacity="0.85" stroke="None">
<path d="
M 425.00 644.00 
C 425.50 644.00 426.55 644.15 427.00 644.00
C 426.09 640.86 414.01 643.73 410.00 643.00 C 405.99 642.27 397.07 643.26 392.00 643.00 C 386.93 642.74 379.50 642.98 374.00 643.00 C 368.50 643.02 361.61 642.68 356.00 643.00
C 378.10 644.08 402.10 644.00 425.00 644.00 Z"/>
</g>
</svg>